<?xml version="1.0" encoding="UTF-8" standalone="no"?>
<!DOCTYPE svg PUBLIC "-//W3C//DTD SVG 1.1//EN" "http://www.w3.org/Graphics/SVG/1.1/DTD/svg11.dtd">
<svg width="100%" height="100%" viewBox="0 0 242 176" version="1.1" xmlns="http://www.w3.org/2000/svg" xmlns:xlink="http://www.w3.org/1999/xlink" xml:space="preserve" xmlns:serif="http://www.serif.com/" style="fill-rule:evenodd;clip-rule:evenodd;stroke-linecap:round;stroke-linejoin:round;stroke-miterlimit:1.5;">
    <g transform="matrix(1,0,0,1,-10.5721,-13.3276)">
        <path d="M21.587,88.314C21.587,88.314 10.769,88.369 13.748,76.319L11.864,76.442C11.864,76.442 9.268,70.085 13.477,69.116C17.686,68.147 22.033,72.58 25.359,67.525C28.685,62.471 22.386,61.622 26.091,58.06C29.795,54.498 40,51.022 43.41,41.824C46.821,32.626 45.088,31.56 51.805,26.969C58.521,22.378 60.255,24.431 62.082,20.158C63.909,15.884 65.529,13.828 65.529,13.828C65.529,13.828 66.107,21.201 63.404,25.103C60.701,29.006 50.428,30.036 48.621,42.172C46.814,54.308 50.166,48.765 50.166,48.765C50.166,48.765 50.397,36.893 58.033,33.785C65.67,30.678 67.06,33.983 71.363,28.468C75.667,22.953 75.492,18.104 75.492,18.104C75.492,18.104 77.723,29.016 72.097,34.29C66.471,39.563 59.958,35.907 58.147,42.249C56.336,48.591 56.922,48.404 61.284,47.983C65.645,47.562 70.719,44.692 72.222,41.146C73.725,37.601 75.25,36.165 75.25,36.165C75.25,36.165 73.59,46.587 68.864,50.868C64.137,55.149 61.964,55.353 64.423,56.182C66.883,57.011 76.134,54.892 76.134,54.892C76.134,54.892 70.608,57.264 73.886,59.55C77.163,61.835 84.762,60.875 84.762,60.875C84.762,60.875 80.535,63.042 82.258,64.288C83.981,65.535 89.074,70.933 89.074,70.933C89.074,70.933 84.322,71.315 86.893,73.238C89.464,75.16 87.806,85.19 87.806,85.19L84.561,85.18L84.038,93.3L80.924,94.08C80.924,94.08 69.223,124.698 80.043,126.438C90.863,128.179 90.097,94.278 90.097,94.278C90.097,94.278 100.048,88.785 100.361,83.636C100.361,83.636 110.038,86.483 116.199,78.868C116.199,78.868 125.751,84.035 135.689,81.224C135.689,81.224 139.782,89.558 149.29,88.908C149.29,88.908 145.968,96.267 160.389,99.131C160.389,99.131 158.436,106.224 166.941,108.273C175.446,110.323 169.8,139.386 193.054,136.477C216.307,133.569 201.188,109.695 180.23,104.288C159.271,98.88 144.433,81.7 149.665,65.17C154.896,48.64 171.347,36.756 186.005,36.808C200.663,36.859 205.322,40.363 205.322,40.363L197.85,41.237C197.85,41.237 218.111,51.623 228.656,54.929L213.791,56.475C213.791,56.475 226.79,69.197 228.438,73.879C230.085,78.56 235.892,86.657 243.971,86.72C252.05,86.783 246.505,89.476 246.505,89.476C246.505,89.476 229.017,92.76 219.719,84.441C219.719,84.441 217.799,91.16 226.657,93.536C226.657,93.536 211.653,95.52 202.632,80.078C202.371,79.631 202.115,79.169 201.864,78.692C193.456,62.699 193.164,65.74 193.164,65.74C193.164,65.74 192.233,75.754 197.295,80.102C197.295,80.102 191.02,79.929 189.355,70.579C187.691,61.229 186.483,54.01 179.344,53.312C179.344,53.312 180.596,55.062 182.635,60.803C184.673,66.545 183.992,69.742 183.992,69.742C183.992,69.742 178.915,59.077 172.232,58.309C165.549,57.542 159.063,57.011 158.514,63.335C157.966,69.659 154.443,78.894 170.055,85.035C185.667,91.175 207.205,96.249 212.674,104.126C218.143,112.004 219.407,117.415 219.625,124.272C219.844,131.129 219.984,131.433 226.3,135.566C232.616,139.699 237.941,139.677 237.941,139.677L237.517,152.754C237.517,152.754 240.039,147.662 245.287,147.739C250.535,147.816 251.959,152.502 251.959,152.502C251.959,152.502 236.674,152.468 237.421,164.747C237.907,172.734 239.998,174.722 239.998,174.722C239.998,174.722 234.841,178.11 231.692,170.704C228.543,163.299 231.777,162.475 231.777,162.475C231.777,162.475 225.031,164.636 228.601,178.207C228.601,178.207 220.966,176.828 223.908,167.584C224.789,164.815 227.321,162.06 227.321,162.06L218.631,167.995C218.631,167.995 216.944,162.038 223.804,159.555C230.664,157.072 232.621,157.125 232.012,152.107C231.402,147.089 223.103,147.439 216.416,147.55C209.728,147.662 207.285,153.233 198.288,154.112C189.291,154.991 188.887,152.892 182.787,156.253C176.686,159.615 179.39,163.745 175.405,164.377C171.42,165.008 163.49,161.489 163.977,164.34C164.464,167.191 169.633,168.77 169.946,171.198C170.26,173.627 164.933,179.192 164.933,179.192C164.933,179.192 165.37,177.53 164.194,173.471C163.019,169.412 158.731,164.894 151.549,164.047C144.367,163.2 141.277,167.954 141.277,167.954C141.277,167.954 140.748,161.901 145.277,159.741C149.806,157.581 154.726,160.061 154.726,160.061C154.726,160.061 148.72,154.264 142.919,155.232C137.119,156.2 137.51,156.623 137.51,156.623C137.51,156.623 137.55,148.891 144.276,150.764C149.509,152.222 154.109,153.836 154.109,153.836L147.609,147.459C147.609,147.459 149.617,145.634 153.268,148.308C156.919,150.982 156.505,156.32 158.927,157.567C161.349,158.814 168.852,158.615 168.582,153.118C168.312,147.621 163.245,145.582 163.245,145.582L135.407,110.618C135.407,110.618 121.989,102.982 116.279,117.234C110.568,131.486 104.236,153.412 104.236,153.412C104.236,153.412 110.815,159.305 110.897,162.104C110.978,164.904 100.012,169.587 102.293,171.393C104.573,173.198 111.49,168.513 115.091,170.601C118.692,172.689 116.017,178.924 116.017,178.924C116.017,178.924 113.725,174.121 108.955,175.13C104.184,176.14 93.052,182.137 93.052,182.137C93.052,182.137 88.749,186.178 92.119,188.397C92.119,188.397 83.173,188.233 86.375,181.773C89.577,175.313 93.855,174.749 93.855,174.749C93.855,174.749 86.022,173.383 83.032,176.202C80.042,179.021 79.569,183.761 79.569,183.761C79.569,183.761 72.444,180.377 77.2,175.722C80.974,172.028 89.232,171.179 89.232,171.179L77.312,169.632L74.1,171.397C74.1,171.397 74.465,165.872 81.671,165.804C88.878,165.736 94.655,170.261 95.881,166.22C97.106,162.179 98.437,159.398 91.819,158.37C85.201,157.341 69.52,160.248 61.337,150.997C53.154,141.746 55.716,137.158 51.459,139.229C47.203,141.301 49.271,147.032 45.088,145.419C40.906,143.805 38.426,135.11 36.48,137.249C34.535,139.387 39.358,144.54 39.054,148.407C38.749,152.273 37.694,153.606 34.68,154.174C31.666,154.743 29.045,152.094 29.045,152.094C29.045,152.094 31.906,152.882 33.601,149.771C35.297,146.66 28.481,131.032 25.646,129.601C22.812,128.17 20.274,126.873 19.411,129.473C18.836,131.208 17.395,132.818 17.395,132.818C17.395,132.818 13.648,124.848 18.515,123.33C23.382,121.812 27.116,122.96 29.221,125.487C31.326,128.014 32.296,130.099 32.296,130.099C32.296,130.099 32.168,115.923 25.693,116.063C20.497,116.175 19.286,116.703 19.286,116.703C19.286,116.703 20.574,111.44 25.284,111.782C29.995,112.124 32.41,115.774 33.787,118.384C35.164,120.995 35.378,123.368 35.378,123.368C35.378,123.368 36.601,116.026 35.489,114.356C34.376,112.686 31.966,109.596 31.966,109.596C31.966,109.596 34.651,107.564 37.639,110.846C40.626,114.129 40.963,115.882 40.32,119.821C39.677,123.76 36.174,127.894 38.922,129.678C41.671,131.461 43.744,132.603 44.892,129.818C46.04,127.033 45.247,124.587 48.681,120.922C52.115,117.257 55.161,117.422 55.868,113C56.575,108.578 66.575,85.495 66.575,85.495C66.575,85.495 70.881,72.691 59.825,70.975C59.825,70.975 59.025,73.596 56.015,75.227C53.005,76.858 51.917,76.679 50.648,77.07C49.38,77.46 49.021,87.928 41.829,91.088C34.638,94.247 29.281,90.69 27.53,88.914L32.39,89.081L31.709,83.14C31.709,83.14 39.743,86.395 39.421,74.972L38.261,73.089L28.127,78.133L26.963,83.66C26.963,83.66 18.132,79.811 21.587,88.314Z" style="fill:none;stroke:black;stroke-width:1px;"/>
    </g>
</svg>
