<?xml version="1.0" encoding="UTF-8" standalone="no"?>
<svg
   xmlns:dc="http://purl.org/dc/elements/1.1/"
   xmlns:cc="http://creativecommons.org/ns#"
   xmlns:rdf="http://www.w3.org/1999/02/22-rdf-syntax-ns#"
   xmlns:svg="http://www.w3.org/2000/svg"
   xmlns="http://www.w3.org/2000/svg"
   width="100%"
   height="100%"
   viewBox="0 0 242 176"
   version="1.1"
   xml:space="preserve"
   style="fill-rule:evenodd;clip-rule:evenodd;stroke-linecap:round;stroke-linejoin:round;stroke-miterlimit:1.5;"
   id="svg885"><metadata
   id="metadata891"><rdf:RDF><cc:Work
       rdf:about=""><dc:format>image/svg+xml</dc:format><dc:type
         rdf:resource="http://purl.org/dc/dcmitype/StillImage" /><dc:title></dc:title></cc:Work></rdf:RDF></metadata><defs
   id="defs889" />
    <g
   transform="matrix(1,0,0,1,-10.5721,-13.3276)"
   id="g883">
        <path
   id="path881"
   style="fill:none;stroke:#000000;stroke-width:1px"
   d="m 65.238281,13.019531 c -1.748359,0.0079 -2.80798,1.689455 -3.562099,3.054575 -0.543036,0.918586 -0.878023,1.973018 -1.34772,2.902254 -5.132434,3.807809 -11.035878,6.837521 -15.007048,11.992725 -2.39183,3.047952 -3.747207,6.852501 -3.917889,10.715155 -0.551992,3.188008 -3.189994,5.409334 -5.721507,7.138787 -3.531668,2.459824 -7.655668,4.324723 -10.303112,7.844942 -1.259863,1.724909 -1.994568,3.929426 -1.737392,6.061424 0.342158,1.17591 0.8932,2.497958 0.409267,3.702248 -0.868356,0.819366 -2.216941,0.702774 -3.330078,0.816406 -3.051235,0.133094 -6.342755,-0.294478 -9.132812,1.222656 -1.340626,0.709825 -2.1506552,2.047094 -2.6855472,3.417969 1.1647782,1.983223 1.5554112,4.267602 1.9143422,6.504861 0.527955,3.301728 1.267257,6.879331 3.839564,9.241233 1.867112,1.705016 4.431461,2.570337 6.925434,2.634948 0.678501,-0.120503 1.357002,-0.241007 2.035504,-0.361511 -0.09058,-1.134772 -0.02167,-2.300693 -0.525444,-3.351879 -0.231642,-0.582371 -0.410918,-1.153731 0.38766,-0.777176 1.790273,0.454571 3.879405,-0.18693 4.835756,-1.832845 1.015316,-1.461767 1.010352,-3.453837 2.24734,-4.772475 0.823201,-0.579492 1.862195,-0.769378 2.710853,-1.326848 1.379786,-0.728443 2.687359,-1.619049 4.164147,-2.145808 -0.0753,0.928955 0.02755,1.851045 -0.01758,2.779297 -0.08081,1.451857 -1.646976,1.959157 -2.811804,2.327526 -1.855274,0.561529 -4.028807,1.282741 -4.785882,3.267275 -0.351712,0.860569 -0.366609,1.824134 -0.19333,2.727464 -1.412376,0.243822 -2.890607,1.290434 -2.861328,2.853516 0.09621,1.811787 1.88901,2.788272 3.392999,3.360387 2.292806,0.82236 4.681764,1.52875 7.130439,1.623988 3.193647,0.1433 6.299796,-1.419776 8.293083,-3.87992 2.897831,-3.318383 4.170484,-7.699323 6.964729,-11.084924 0.725397,-0.85907 1.674009,-1.507012 2.742188,-1.859375 1.560683,-1.92174 3.656677,-3.792153 6.248046,-3.93164 1.830799,-0.07892 2.985021,1.668892 3.421946,3.240666 0.523469,1.767214 0.28139,3.664687 0.04485,5.464412 -1.088527,6.273415 -4.578544,11.728567 -6.882123,17.577976 -0.557831,1.48009 -1.216511,2.96328 -1.4682,4.52761 -0.251607,4.02126 -2.49256,7.56483 -5.060229,10.53806 -3.353825,3.94047 -7.234635,7.71247 -8.939294,12.72849 -0.262251,0.35389 -0.107333,1.37879 -0.760743,1.03667 -0.805874,-0.11264 -1.650246,-0.67152 -1.545661,-1.58654 0.127031,-2.77249 1.34853,-5.33969 1.864408,-8.04473 0.636148,-2.77294 0.61972,-5.98589 -1.274564,-8.29121 -1.463099,-1.79662 -3.659169,-2.77456 -5.759765,-3.61719 -1.299398,-0.54116 -3.114499,-0.32064 -3.761719,1.07813 -0.777232,1.62377 0.255394,3.37161 0.845703,4.86133 -2.273426,-2.0681 -5.177282,-3.96733 -8.386498,-3.6706 -2.811799,0.24217 -4.944348,2.53314 -5.993943,5.00944 -0.330566,0.81479 -0.225738,1.74511 -0.373465,2.60842 1.084793,0.23177 2.147296,0.66136 3.26901,0.46636 2.693767,-0.005 5.653106,0.46552 7.689974,2.37739 0.827189,0.83155 1.259906,2.00093 1.259766,3.16602 -1.59328,-1.56545 -3.702657,-2.84471 -6.00586,-2.72461 -2.310163,-0.89487 -5.189253,-0.62956 -6.967195,1.21719 -2.170874,2.22483 -2.805163,5.62428 -2.253508,8.60898 0.270715,1.55231 1.377967,3.21202 3.101543,3.24538 1.926237,0.0294 3.164865,-1.74485 3.93752,-3.29225 3.159759,0.99848 5.446643,3.67858 7.114997,6.4229 1.771459,3.07136 3.04429,6.67102 2.555579,10.25768 -0.193966,1.59992 -1.095119,3.03065 -2.379065,3.98615 -0.307192,0.44812 -0.0912,1.1532 -0.119636,1.70631 0.101603,1.82766 1.711927,3.36409 3.541208,3.3852 2.772076,0.0768 5.301572,-1.60271 7.077932,-3.61176 1.84562,-2.08646 2.764916,-5.11212 1.857422,-7.81445 1.580172,1.49958 3.697709,3.00988 5.997843,2.50296 0.923644,-0.21535 1.854107,-0.75265 2.390501,-1.51844 0.592956,-1.49515 1.074759,-3.16645 2.301109,-4.27554 0.93793,0.37883 1.52559,1.37434 2.147792,2.14842 2.408021,3.33956 4.092292,7.24353 7.123693,10.10353 1.589119,1.46702 3.287211,2.86154 5.282212,3.74697 5.021618,2.3525 10.700088,2.20592 16.117687,2.2991 4.106425,0.0964 8.498112,0.16777 12.111793,2.37624 0.340609,0.36189 0.03451,1.06714 0.01761,1.56012 -0.106478,0.87149 -0.723391,1.69805 -1.65951,1.72921 -2.596562,0.22892 -5.125325,-0.63985 -7.660827,-1.06334 -3.103899,-0.58562 -6.588537,-1.01966 -9.434308,0.68217 -2.084007,1.2073 -3.214921,3.47377 -3.837985,5.71625 -0.311118,0.62669 -0.449456,1.17255 0.425708,1.24431 0.922861,0.42543 1.922611,0.76654 2.946218,0.50976 1.35432,-0.22733 2.693563,-0.55848 4.064454,-0.67579 -2.557495,1.10781 -5.215849,2.95306 -5.827453,5.85173 -0.168394,0.82999 -0.256313,1.7112 0.196742,2.46798 0.749327,1.74368 1.506855,3.82834 3.370945,4.651 1.509858,0.62301 3.13741,-0.32925 3.933907,-1.62183 0.604807,-0.86271 1.080333,-1.80588 1.593437,-2.72388 0.319197,-0.56541 0.787255,-1.40879 1.242187,-2.0332 0.757811,-1.10511 1.957255,-2.31656 3.433594,-1.93945 0.744018,-0.0329 -0.416355,0.61142 -0.558743,0.91795 -1.02018,1.15132 -2.32678,2.12819 -2.839695,3.64455 -1.103844,2.7509 0.279346,5.89469 2.498423,7.64668 1.507167,1.27357 3.857444,2.17378 5.670252,0.99284 1.456963,-0.96224 1.70729,-2.91708 1.348904,-4.50085 3.842495,-2.98794 7.904452,-5.93234 12.623362,-7.34281 2.34034,-0.70095 5.21023,-0.78089 7.09941,1.01578 0.712,0.64776 1.19382,1.50154 2.0491,1.99232 0.50011,0.48162 0.99348,0.87034 1.40127,0.0778 0.7553,-0.66855 1.34087,-1.46862 1.71553,-2.40717 0.98054,-2.07144 1.72697,-4.69403 0.44278,-6.80086 -1.26586,-2.09484 -3.92127,-2.61413 -6.18692,-2.69524 -1.79389,-0.0705 -3.73535,0.0737 -5.42969,0.16016 2.60288,-1.3468 4.71705,-3.95047 4.77805,-6.97153 0.125,-3.81242 -2.33219,-7.19854 -5.24395,-9.42662 -0.56534,-0.2903 0.10565,-0.97667 0.1055,-1.44963 2.79305,-9.42635 5.82135,-18.78722 9.1393,-28.03979 0.74048,-5.10101 3.9611,-10.02453 8.79701,-12.06393 2.98076,-1.28605 6.59261,-0.86685 9.23833,0.97505 9.30773,11.69224 18.61771,23.3827 27.92404,35.07606 1.74082,0.53669 3.80003,1.40704 4.28321,3.35937 0.45596,2.33038 -1.16706,4.77215 -3.32483,5.60344 -1.46921,0.61294 -2.99214,-0.39116 -3.74158,-1.63273 -0.33341,-0.50734 -0.0543,-1.19922 -0.25977,-1.77539 -0.64502,-3.27396 -3.51839,-5.58746 -6.46289,-6.8086 -1.61772,-0.62388 -3.68205,-1.21367 -5.20508,-0.0625 -1.09345,0.81068 -1.08073,2.48861 -0.4746,3.4961 -2.69481,-0.69201 -5.72012,-1.35297 -8.35435,-0.10035 -2.13902,0.99969 -3.07256,3.50371 -2.90003,5.74708 0.0883,0.57115 -0.0484,1.30598 0.18747,1.77025 1.26966,0.59478 2.6457,0.92735 4.05361,0.84679 2.10246,-0.0266 4.20584,-0.22644 6.30822,-0.088 -2.85392,0.77237 -5.74531,2.56538 -6.67969,5.52344 -0.54678,1.77633 -0.528,3.79576 0.3777,5.45168 0.11289,0.85425 0.63044,0.80717 1.2814,0.46295 1.39751,-0.36521 2.55577,-1.28234 3.9397,-1.70179 3.10609,-1.09424 6.58244,-1.85789 9.81276,-0.84844 1.04872,0.31705 1.90709,1.01623 2.70172,1.74302 0.92489,-0.0241 1.90405,0.24968 2.41681,1.08511 1.86231,2.63774 1.89895,6.03368 3.20624,8.91098 0.57404,1.36358 2.28301,2.16484 3.63867,1.4336 0.64879,-0.35883 1.11808,-0.94134 1.82794,-1.2038 1.97346,-1.05498 3.58388,-3.15087 3.317,-5.48366 -0.31385,-3.00023 -2.5836,-5.23347 -4.4008,-7.45317 2.51101,1.37988 5.74544,1.91689 8.3309,0.41791 3.66081,-1.97937 5.2042,-6.28063 8.71598,-8.43744 0.88239,-0.59406 2.00144,-0.25356 2.99925,-0.41769 10.27069,-0.54253 20.36729,-3.31004 29.62771,-7.74795 2.80329,-0.8957 5.86987,-0.34322 8.57188,0.65111 1.56095,0.66106 3.31008,1.45565 4.12342,3.03406 0.34159,1.1011 -0.8288,1.89223 -1.58203,2.47461 -0.4168,0.43269 -0.93877,0.41269 -1.49023,0.34766 -3.12294,0.11283 -5.68406,2.31761 -7.57422,4.62304 -1.31428,1.73333 -2.67552,3.69588 -2.73438,5.94727 -0.0485,1.56051 1.45747,2.89505 3.0018,2.6224 0.81645,-0.0828 1.56913,-0.45766 2.26578,-0.87045 -0.84927,2.66605 -0.95025,5.87917 0.81989,8.20209 1.22401,1.32449 2.44187,2.94807 4.29925,3.34674 1.47111,0.2691 2.82705,-0.96342 2.97656,-2.39648 0.30914,-2.42043 -0.29028,-4.84299 -0.25781,-7.26954 0.53878,2.69812 1.64949,5.66285 4.26172,6.97657 2.10073,1.05868 4.54378,0.54469 6.61801,-0.30438 0.68057,-0.14277 1.21552,-0.36406 0.76905,-1.11457 -1.17024,-4.59611 -2.26096,-9.4294 -1.31861,-14.16848 0.44685,-2.36193 1.92947,-4.64929 4.27107,-5.47753 1.67445,-0.75065 3.56132,-0.38505 5.29199,-0.92272 1.66231,-0.36165 3.40421,-1.57855 3.44466,-3.4342 -0.002,-2.19647 -1.98904,-3.68947 -3.79492,-4.54101 -2.95002,-1.35298 -6.58644,-1.76064 -9.5332,-0.18164 0.0684,-1.79219 0.33381,-3.61329 0.0986,-5.39342 -0.73691,-2.65443 -3.31279,-4.16465 -5.72427,-5.08968 -3.37525,-1.38538 -7.14963,-2.04515 -10.06388,-4.36503 -1.10409,-0.91668 -2.04004,-2.24836 -1.90748,-3.74644 -0.41393,-7.30577 -1.42099,-14.83564 -5.05584,-21.31327 -1.24055,-2.20487 -2.7086,-4.32209 -4.68241,-5.93495 -5.92738,-5.273902 -13.45577,-8.206458 -20.89198,-10.652937 -4.99031,-1.623153 -10.01675,-3.160168 -14.9006,-5.082821 -4.87689,-1.310907 -9.73761,-3.366612 -13.39616,-6.941961 -2.3535,-2.264657 -3.87865,-5.526553 -3.51145,-8.835244 0.0273,-1.088506 0.56936,-2.121994 0.31069,-3.210866 -0.23378,-2.041628 0.55758,-4.276733 2.38857,-5.35293 2.79912,-1.694678 6.32755,-1.571193 9.39289,-0.756642 2.09391,0.627853 4.24201,1.609969 5.613,3.370108 1.20915,1.963722 2.33368,4.097679 4.18034,5.542377 1.13036,0.915788 3.01418,0.715297 3.74178,-0.603486 0.90023,-1.624871 0.39946,-3.575468 0.0937,-5.298828 -0.36442,-1.650266 -0.85712,-3.270696 -1.4375,-4.857422 1.95233,3.100896 2.23815,6.854826 2.98392,10.358134 0.7072,3.725601 1.69318,7.666049 4.38741,10.484654 1.42227,0.97566 2.74929,2.274086 4.48805,2.635728 1.14413,0.136791 2.30844,-0.679767 2.44978,-1.842609 0.14572,-1.62175 -0.96389,-3.003675 -1.55329,-4.441934 -0.69141,-1.4633 -1.41391,-2.998867 -1.39085,-4.650509 -0.26294,-0.844841 0.26496,0.247162 0.42014,0.550286 2.75426,6.001716 6.06078,11.897532 10.78386,16.585664 3.92087,3.935878 9.10354,6.716266 14.67512,7.261992 1.62073,0.129452 3.28394,0.608894 4.89844,0.253907 0.94317,-0.246025 1.58316,-1.172987 1.53094,-2.136487 0.0656,-0.530391 -0.35114,-1.043182 -0.68133,-1.427966 -1.36056,-1.176355 -3.07702,-1.895243 -4.34961,-3.191407 5.80595,2.068327 11.91776,3.796692 18.14072,3.461062 2.56581,-0.163054 5.14272,-0.791016 7.40225,-2.033327 1.1981,-0.654701 1.78288,-2.32097 0.93779,-3.476944 -1.04013,-1.399224 -2.94955,-1.553342 -4.51184,-1.988631 -1.56519,-0.356024 -3.1842,-0.711005 -4.62712,-1.137941 -1.4682,-0.502001 -3.14425,-0.918501 -4.17383,-2.160156 -0.74071,-1.415637 -1.80072,-2.651819 -2.64332,-4.012922 -4.52511,-6.750516 -8.8836,-13.717844 -14.67895,-19.479266 3.47852,-0.361328 6.95704,-0.722656 10.43555,-1.083984 0.57162,-0.589844 1.14323,-1.179688 1.71484,-1.769531 -0.4704,-0.695996 -0.82373,-1.536795 -1.36605,-2.14383 -2.60903,-0.878865 -5.22298,-1.870124 -7.69604,-2.886489 -3.39396,-1.394569 -6.60674,-2.858637 -9.92444,-4.416831 -2.29354,-1.071945 -4.56738,-2.185363 -6.85136,-3.27746 0.6933,0.105684 1.12354,-0.370158 1.56266,-0.82637 0.30169,-0.447279 1.32803,-0.781532 0.741,-1.367429 -0.36078,-0.565429 -0.60001,-1.265702 -1.03444,-1.749435 -10.18396,-4.40566 -22.10568,-5.110027 -32.55281,-1.181368 -5.60409,2.137514 -10.61584,5.657422 -14.89402,9.828643 -5.67872,5.638374 -10.1927,12.790396 -11.51184,20.780334 -0.914,5.389817 -0.0531,11.048485 2.44206,15.914626 3.41249,7.062207 9.39135,12.597258 16.12221,16.473088 6.14372,3.57781 12.89803,5.95346 19.71137,7.88811 5.15486,2.5082 10.13548,5.7096 13.77482,10.2081 2.33665,2.87138 3.90207,6.6559 3.18887,10.39869 -0.0984,0.72097 -0.26921,1.44902 -0.88777,1.9045 -3.47505,3.47871 -8.77742,4.65754 -13.53569,3.88356 -3.83233,-0.59159 -7.58877,-2.75729 -9.37389,-6.30207 -2.88278,-4.8957 -3.37568,-10.73304 -5.78663,-15.83218 -1.50917,-3.38061 -4.16033,-6.36065 -7.67097,-7.70439 -0.40462,-0.22837 -1.08451,-0.17262 -1.06172,-0.77373 -0.63411,-2.89137 -2.50848,-5.43682 -5.04961,-6.945022 -2.12761,-1.322925 -4.46398,-2.271443 -6.58203,-3.611329 -0.43716,-2.37894 -1.52462,-4.881872 -3.79516,-6.025773 -1.70896,-0.939581 -3.71162,-1.1845 -5.51344,-1.798445 -2.17169,-2.777973 -5.25482,-4.916053 -8.76433,-5.535827 -2.81748,-0.545864 -5.70351,-0.404338 -8.55598,-0.352845 -2.74161,-1.754249 -6.20172,-2.347466 -9.34548,-1.44414 -4.12667,1.040995 -7.73583,3.916407 -12.12013,3.914443 -1.04878,0.01934 -2.07665,-0.20767 -3.1047,-0.382413 -2.214452,3.113402 -5.478293,5.200852 -8.195387,7.823713 -2.816313,2.606708 -5.299949,5.986028 -5.53899,9.943866 -0.117671,1.419462 0.127638,2.841552 0.429846,4.214942 -0.246402,3.32135 -0.504444,6.64941 -1.090002,9.93154 -0.122451,0.69004 -0.314838,1.67413 -0.517761,2.46602 -0.629794,2.3915 -1.339773,4.96297 -3.169639,6.73454 -1.211174,1.20838 -3.116324,0.92229 -4.504006,0.20569 -1.441605,-3.85512 -1.245572,-8.09474 -0.472657,-12.07226 0.106838,-0.5123 0.267678,-1.34002 0.429213,-1.97488 0.942319,-3.89004 2.197146,-7.70144 3.338365,-11.530983 1.282118,-2.158806 3.675539,-3.560477 4.444611,-6.046321 0.413454,-1.176039 0.480469,-2.451797 0.322968,-3.682195 3.738196,-3.423456 5.189056,-9.348265 2.851562,-13.955078 -0.532653,-0.5316 -0.07356,-0.854141 0.28125,-1.306641 1.045936,-1.463607 0.450042,-3.448216 -0.685547,-4.675781 -1.211342,-1.40844 -2.73055,-2.498406 -4.111328,-3.728515 0.900521,-1.119653 1.381024,-2.907172 0.326172,-4.085938 -1.229082,-1.392919 -3.269053,-1.102796 -4.937076,-1.119853 -1.638183,-0.01189 -3.43065,0.112728 -4.87933,-0.784444 0.905262,-0.873797 1.973555,-1.926064 1.761718,-3.302343 -0.196332,-0.559174 -0.490668,-1.247931 -1.121093,-1.439844 -1.334831,-0.680123 -2.830202,0.09468 -4.191483,0.312191 -1.489361,0.371609 -3.030766,0.387525 -4.522132,0.741484 -0.571759,0.114499 0.428182,-0.502444 0.588615,-0.682581 1.199844,-0.911674 2.714142,-1.425741 3.593518,-2.720764 2.100846,-2.749438 3.393157,-6.023637 4.469498,-9.285041 0.426778,-1.548615 1.086941,-3.221819 0.598821,-4.824674 -0.404202,-1.271716 -2.035503,-1.843745 -3.160564,-1.142656 -0.926689,0.564321 -1.570158,1.53029 -2.091173,2.443533 -0.09082,2.460959 -2.115011,4.256688 -4.039348,5.499706 -2.132201,1.304356 -4.600984,2.369226 -7.147728,2.216819 -0.485801,-0.0226 -1.167752,-0.241053 -1.006965,-0.86687 0.0901,-1.09744 0.616124,-2.100383 1.13355,-3.052475 5.790494,-1.519571 11.47317,-4.499544 15.048828,-9.433594 2.570374,-3.521565 3.539821,-8.102584 2.710382,-12.373354 -0.204286,-0.926624 -0.346777,-1.950851 -0.771931,-2.769807 -0.690421,-0.392384 -1.380842,-0.784768 -2.071263,-1.177152 -0.562784,0.628493 -1.307003,1.17858 -1.757002,1.855812 0.05139,3.719748 -1.67493,7.397452 -4.607468,9.695595 -3.038413,2.454393 -6.926657,3.667122 -10.785921,3.936875 3.448052,-2.720988 7.093093,-5.679616 8.646666,-9.939966 0.65396,-1.959107 1.059501,-4.043465 0.974428,-6.114722 -0.06066,-1.349125 -1.020988,-2.746485 -2.478516,-2.701172 z" />
    </g>
</svg>
